<svg width="670" height="452" viewBox="0 0 670 452" xmlns="http://www.w3.org/2000/svg">
  <title>Structure projet Ansible - RP-08</title>
  <rect x="0" y="20" width="670" height="26" fill="#EEF2F7"/>
  <rect x="0" y="46" width="670" height="26" fill="#F5F7FA"/>
  <rect x="0" y="72" width="670" height="26" fill="#EEF2F7"/>
  <rect x="0" y="98" width="670" height="26" fill="#F5F7FA"/>
  <rect x="0" y="124" width="670" height="26" fill="#EEF2F7"/>
  <rect x="0" y="150" width="670" height="26" fill="#F5F7FA"/>
  <rect x="0" y="176" width="670" height="26" fill="#EEF2F7"/>
  <rect x="0" y="202" width="670" height="26" fill="#F5F7FA"/>
  <rect x="0" y="228" width="670" height="26" fill="#EEF2F7"/>
  <rect x="0" y="254" width="670" height="26" fill="#F5F7FA"/>
  <rect x="0" y="280" width="670" height="26" fill="#EEF2F7"/>
  <rect x="0" y="306" width="670" height="26" fill="#F5F7FA"/>
  <rect x="0" y="332" width="670" height="26" fill="#EEF2F7"/>
  <rect x="0" y="358" width="670" height="26" fill="#F5F7FA"/>
  <rect x="0" y="384" width="670" height="26" fill="#EEF2F7"/>
  <rect x="0" y="410" width="670" height="26" fill="#F5F7FA"/>
  <rect x="0" y="20" width="670" height="26" fill="#E3EAF4"/>
  <line x1="27" y1="27" x2="27" y2="417" stroke="#C8C6BE" stroke-width="1.2" stroke-linecap="round"/>
  <line x1="27" y1="53" x2="46" y2="53" stroke="#C8C6BE" stroke-width="1.2" stroke-linecap="round"/>
  <line x1="27" y1="105" x2="46" y2="105" stroke="#C8C6BE" stroke-width="1.2" stroke-linecap="round"/>
  <line x1="27" y1="209" x2="46" y2="209" stroke="#C8C6BE" stroke-width="1.2" stroke-linecap="round"/>
  <line x1="27" y1="417" x2="46" y2="417" stroke="#C8C6BE" stroke-width="1.2" stroke-linecap="round"/>
  <line x1="53" y1="53" x2="53" y2="79" stroke="#C8C6BE" stroke-width="1.2" stroke-linecap="round"/>
  <line x1="53" y1="79" x2="72" y2="79" stroke="#C8C6BE" stroke-width="1.2" stroke-linecap="round"/>
  <line x1="53" y1="105" x2="53" y2="131" stroke="#C8C6BE" stroke-width="1.2" stroke-linecap="round"/>
  <line x1="53" y1="131" x2="72" y2="131" stroke="#C8C6BE" stroke-width="1.2" stroke-linecap="round"/>
  <line x1="79" y1="131" x2="79" y2="183" stroke="#C8C6BE" stroke-width="1.2" stroke-linecap="round"/>
  <line x1="79" y1="157" x2="98" y2="157" stroke="#C8C6BE" stroke-width="1.2" stroke-linecap="round"/>
  <line x1="79" y1="183" x2="98" y2="183" stroke="#C8C6BE" stroke-width="1.2" stroke-linecap="round"/>
  <line x1="53" y1="209" x2="53" y2="339" stroke="#C8C6BE" stroke-width="1.2" stroke-linecap="round"/>
  <line x1="53" y1="235" x2="72" y2="235" stroke="#C8C6BE" stroke-width="1.2" stroke-linecap="round"/>
  <line x1="53" y1="339" x2="72" y2="339" stroke="#C8C6BE" stroke-width="1.2" stroke-linecap="round"/>
  <line x1="79" y1="235" x2="79" y2="313" stroke="#C8C6BE" stroke-width="1.2" stroke-linecap="round"/>
  <line x1="79" y1="261" x2="98" y2="261" stroke="#C8C6BE" stroke-width="1.2" stroke-linecap="round"/>
  <line x1="79" y1="287" x2="98" y2="287" stroke="#C8C6BE" stroke-width="1.2" stroke-linecap="round"/>
  <line x1="79" y1="313" x2="98" y2="313" stroke="#C8C6BE" stroke-width="1.2" stroke-linecap="round"/>
  <line x1="79" y1="339" x2="79" y2="391" stroke="#C8C6BE" stroke-width="1.2" stroke-linecap="round"/>
  <line x1="79" y1="365" x2="98" y2="365" stroke="#C8C6BE" stroke-width="1.2" stroke-linecap="round"/>
  <line x1="79" y1="391" x2="98" y2="391" stroke="#C8C6BE" stroke-width="1.2" stroke-linecap="round"/>
  <rect x="20" y="22" width="14" height="9" rx="2" fill="#0C447C"/>
  <text x="36" y="34" font-family="monospace" font-size="13" font-weight="700" fill="#0C447C">Vince_monitoring_ansible/</text>
  <rect x="46" y="48" width="14" height="9" rx="2" fill="#E67E00"/>
  <text x="62" y="60" font-family="monospace" font-size="13" font-weight="600" fill="#E67E00">inventory/</text>
  <rect x="72" y="72" width="10" height="14" rx="1" fill="#1D9E75"/>
  <text x="86" y="86" font-family="monospace" font-size="13" fill="#2D6A4F">hosts.yml</text>
  <text x="265" y="86" font-family="monospace" font-size="11" fill="#888780"># Serveur IRIS Nice (37.64.159.66:2222)</text>
  <rect x="46" y="100" width="14" height="9" rx="2" fill="#E67E00"/>
  <text x="62" y="112" font-family="monospace" font-size="13" font-weight="600" fill="#E67E00">group_vars/</text>
  <rect x="72" y="126" width="14" height="9" rx="2" fill="#E67E00"/>
  <text x="88" y="138" font-family="monospace" font-size="13" fill="#E67E00">all/</text>
  <rect x="98" y="150" width="10" height="14" rx="1" fill="#1D9E75"/>
  <text x="112" y="164" font-family="monospace" font-size="13" fill="#2D6A4F">vars.yml</text>
  <text x="265" y="164" font-family="monospace" font-size="11" fill="#888780"># Variables globales (ports, versions)</text>
  <rect x="98" y="176" width="10" height="14" rx="1" fill="#C0392B"/>
  <text x="112" y="190" font-family="monospace" font-size="13" fill="#922B21">vault.yml</text>
  <text x="265" y="190" font-family="monospace" font-size="11" fill="#888780"># Secrets chiffres (Ansible Vault AES-256)</text>
  <rect x="46" y="204" width="14" height="9" rx="2" fill="#E67E00"/>
  <text x="62" y="216" font-family="monospace" font-size="13" font-weight="600" fill="#E67E00">roles/</text>
  <rect x="72" y="230" width="14" height="9" rx="2" fill="#D85A30"/>
  <text x="88" y="242" font-family="monospace" font-size="13" font-weight="700" fill="#D85A30">monitoring/</text>
  <text x="265" y="242" font-family="monospace" font-size="11" fill="#888780"># Prometheus + Grafana + Loki + Promtail</text>
  <rect x="98" y="256" width="14" height="9" rx="2" fill="#AAAAAA"/>
  <text x="114" y="268" font-family="monospace" font-size="13" fill="#666666">tasks/</text>
  <rect x="98" y="282" width="14" height="9" rx="2" fill="#AAAAAA"/>
  <text x="114" y="294" font-family="monospace" font-size="13" fill="#666666">templates/</text>
  <text x="265" y="294" font-family="monospace" font-size="11" fill="#888780"># prometheus.yml.j2, loki-config.yml.j2</text>
  <rect x="98" y="308" width="14" height="9" rx="2" fill="#AAAAAA"/>
  <text x="114" y="320" font-family="monospace" font-size="13" fill="#666666">handlers/</text>
  <text x="265" y="320" font-family="monospace" font-size="11" fill="#888780"># Restart handlers</text>
  <rect x="72" y="334" width="14" height="9" rx="2" fill="#7F77DD"/>
  <text x="88" y="346" font-family="monospace" font-size="13" font-weight="700" fill="#7F77DD">wireguard/</text>
  <text x="265" y="346" font-family="monospace" font-size="11" fill="#888780"># VPN WireGuard</text>
  <rect x="98" y="360" width="14" height="9" rx="2" fill="#AAAAAA"/>
  <text x="114" y="372" font-family="monospace" font-size="13" fill="#666666">tasks/</text>
  <rect x="98" y="386" width="14" height="9" rx="2" fill="#AAAAAA"/>
  <text x="114" y="398" font-family="monospace" font-size="13" fill="#666666">templates/</text>
  <text x="265" y="398" font-family="monospace" font-size="11" fill="#888780"># wg0.conf.j2</text>
  <rect x="46" y="410" width="10" height="14" rx="1" fill="#7F77DD"/>
  <text x="60" y="424" font-family="monospace" font-size="13" font-weight="700" fill="#534AB7">main.yml</text>
  <text x="265" y="424" font-family="monospace" font-size="11" fill="#888780"># Playbook principal</text>
</svg>
